<?xml version="1.0" encoding="iso-8859-1"?>
<!-- Uploaded to: SVG Repo, www.svgrepo.com, Generator: SVG Repo Mixer Tools -->
<svg fill="#000000" height="800px" width="800px" version="1.1" id="Layer_1" xmlns="http://www.w3.org/2000/svg" xmlns:xlink="http://www.w3.org/1999/xlink" 
	 viewBox="0 0 512 512" xml:space="preserve">
<g>
	<g>
		<path d="M408.815,352.058L383.164,73.779c5.65-6.024,9.12-14.116,9.12-23.007c0-18.566-15.105-33.67-33.67-33.67h-34.205
			c-4.436,0-8.67,0.87-12.552,2.436l-5.634-14.437C305.024,2.026,302.059,0,298.756,0h-85.511c-3.303,0-6.268,2.026-7.468,5.102
			l-5.634,14.437c-3.881-1.566-8.115-2.436-12.551-2.436h-34.205c-18.566,0-33.67,15.105-33.67,33.67
			c0,8.891,3.47,16.983,9.12,23.007l-25.651,278.279c-0.632,6.849,2.936,13.263,9.089,16.339l27.945,13.973
			c-1.72,12.934-3.187,25.201-4.419,36.286c-5.306,47.755-7.496,84.492-7.518,84.857c-0.129,2.204,0.655,4.364,2.171,5.97
			c1.515,1.607,3.625,2.517,5.833,2.517l239.427-0.001c2.207,0,4.318-0.911,5.833-2.517c1.515-1.606,2.299-3.766,2.17-5.97
			c-0.022-0.366-2.212-37.102-7.518-84.857c-1.231-11.083-2.699-23.349-4.419-36.283l27.949-13.975
			C405.88,365.321,409.447,358.908,408.815,352.058z M389.495,317.125c-0.087,0.04-0.175,0.072-0.261,0.114l-25.428,12.713
			c-3.986-22.94-8.721-45.87-14.278-66.436V230.79l16.35-147.145c0.69-0.153,1.372-0.327,2.047-0.522L389.495,317.125z
			 M324.409,33.136h34.205c9.725,0,17.637,7.912,17.637,17.637s-7.912,17.637-17.637,17.637h-34.205
			c-9.725,0-17.637-7.912-17.637-17.637S314.684,33.136,324.409,33.136z M281.119,144.274c0.178,0.005,0.354,0.027,0.534,0.027
			c9.136,0,16.568-7.432,16.568-16.568c0-9.136-7.432-16.568-16.568-16.568c-0.181,0-0.356,0.021-0.534,0.027V16.033h12.16
			l5.189,13.298c-4.825,5.828-7.729,13.301-7.729,21.441c0,18.566,15.104,33.67,33.67,33.67h25.248l-15.32,137.887h-53.218V144.274z
			 M281.119,238.363h52.376v18.171h-52.376V238.363z M246.914,16.033h18.171v445.729h-18.171V16.033z M221.261,50.772
			c0-8.14-2.904-15.613-7.729-21.441l5.189-13.298h12.16V222.33h-53.217L162.342,84.443h25.248
			C206.156,84.443,221.261,69.338,221.261,50.772z M230.881,238.363v18.171h-52.376v-18.171H230.881z M153.386,33.136h34.205
			c9.725,0,17.637,7.912,17.637,17.637s-7.912,17.637-17.637,17.637h-34.205c-9.725,0-17.637-7.912-17.637-17.637
			S143.661,33.136,153.386,33.136z M144.076,83.122c0.674,0.195,1.356,0.37,2.047,0.522l16.349,147.146v32.707
			c-5.559,20.57-10.297,43.507-14.283,66.453l-25.423-12.711c-0.086-0.043-0.174-0.075-0.261-0.114L144.076,83.122z
			 M119.444,354.057c-0.199-0.099-0.313-0.307-0.293-0.527l1.778-19.285l24.51,12.255c-1.023,6.434-1.987,12.818-2.896,19.108
			L119.444,354.057z M247.983,495.967H144.849c0.945-13.48,3.129-41.751,6.894-75.632c4.648-41.812,12.689-100.611,24.914-147.767
			h54.224v197.211c0,4.427,3.589,8.017,8.017,8.017h9.086V495.967z M264.017,495.966v-18.17h9.086c4.427,0,8.017-3.589,8.017-8.017
			v-17.663c0.178,0.005,0.354,0.027,0.534,0.027c9.136,0,16.568-7.432,16.568-16.568c0-9.136-7.432-16.568-16.568-16.568
			c-0.181,0-0.356,0.021-0.534,0.027V298.195c0.178,0.005,0.354,0.027,0.534,0.027c9.136,0,16.568-7.432,16.568-16.568
			c0-3.354-1.009-6.474-2.729-9.086h39.847c20.502,79.065,29.573,191.828,31.803,223.398H264.017z M392.557,354.057l-23.104,11.552
			c-0.909-6.289-1.872-12.674-2.896-19.108l24.515-12.257l1.778,19.286C392.871,353.751,392.755,353.958,392.557,354.057z"/>
	</g>
</g>
<g>
	<g>
		<path d="M199.035,290.93c-4.323-0.962-8.605,1.764-9.566,6.085c-2.369,10.653-4.676,22.274-6.859,34.539
			c-0.776,4.359,2.129,8.521,6.488,9.297c0.475,0.084,0.947,0.126,1.414,0.126c3.812,0,7.193-2.73,7.883-6.614
			c2.143-12.042,4.406-23.438,6.725-33.869C206.082,296.173,203.357,291.891,199.035,290.93z"/>
	</g>
</g>
<g>
	<g>
		<path d="M329.381,331.555c-2.183-12.27-4.489-23.891-6.857-34.539c-0.961-4.322-5.24-7.047-9.566-6.086
			c-4.322,0.96-7.047,5.243-6.086,9.566c2.317,10.426,4.579,21.821,6.722,33.869c0.69,3.884,4.071,6.614,7.883,6.614
			c0.466,0,0.938-0.042,1.413-0.125C327.251,340.076,330.156,335.914,329.381,331.555z"/>
	</g>
</g>
</svg>